<?xml version="1.0" encoding="utf-8" standalone="no"?>
<!DOCTYPE svg PUBLIC "-//W3C//DTD SVG 1.1//EN"
  "http://www.w3.org/Graphics/SVG/1.1/DTD/svg11.dtd">
<!-- Created with matplotlib (https://matplotlib.org/) -->
<svg height="252pt" version="1.1" viewBox="0 0 432 252" width="432pt" xmlns="http://www.w3.org/2000/svg" xmlns:xlink="http://www.w3.org/1999/xlink">
 <metadata>
  <rdf:RDF xmlns:cc="http://creativecommons.org/ns#" xmlns:dc="http://purl.org/dc/elements/1.1/" xmlns:rdf="http://www.w3.org/1999/02/22-rdf-syntax-ns#">
   <cc:Work>
    <dc:type rdf:resource="http://purl.org/dc/dcmitype/StillImage"/>
    <dc:date>2021-02-01T19:57:09.923723</dc:date>
    <dc:format>image/svg+xml</dc:format>
    <dc:creator>
     <cc:Agent>
      <dc:title>Matplotlib v3.3.3, https://matplotlib.org/</dc:title>
     </cc:Agent>
    </dc:creator>
   </cc:Work>
  </rdf:RDF>
 </metadata>
 <defs>
  <style type="text/css">*{stroke-linecap:butt;stroke-linejoin:round;}</style>
 </defs>
 <g id="figure_1">
  <g id="patch_1">
   <path d="M 0 252 
L 432 252 
L 432 0 
L 0 0 
z
" style="fill:#ffffff;"/>
  </g>
  <g id="axes_1">
   <g id="patch_2">
    <path d="M 57.17 190.527581 
L 406.43829 190.527581 
L 406.43829 10.8 
L 57.17 10.8 
z
" style="fill:#ffffff;"/>
   </g>
   <g id="matplotlib.axis_1">
    <g id="xtick_1">
     <g id="line2d_1">
      <path clip-path="url(#pd48676990a)" d="M 57.17 190.527581 
L 57.17 10.8 
" style="fill:none;stroke:#d3d3d3;stroke-linecap:square;stroke-width:0.8;"/>
     </g>
     <g id="line2d_2">
      <defs>
       <path d="M 0 0 
L 0 3.5 
" id="m9a0f4115ad" style="stroke:#000000;stroke-width:0.8;"/>
      </defs>
      <g>
       <use style="stroke:#000000;stroke-width:0.8;" x="57.17" xlink:href="#m9a0f4115ad" y="190.527581"/>
      </g>
     </g>
     <g id="text_1">
      <!-- 32 -->
      <g transform="translate(50.71986 202.900488)rotate(-315)scale(0.1 -0.1)">
       <defs>
        <path d="M 40.578125 39.3125 
Q 47.65625 37.796875 51.625 33 
Q 55.609375 28.21875 55.609375 21.1875 
Q 55.609375 10.40625 48.1875 4.484375 
Q 40.765625 -1.421875 27.09375 -1.421875 
Q 22.515625 -1.421875 17.65625 -0.515625 
Q 12.796875 0.390625 7.625 2.203125 
L 7.625 11.71875 
Q 11.71875 9.328125 16.59375 8.109375 
Q 21.484375 6.890625 26.8125 6.890625 
Q 36.078125 6.890625 40.9375 10.546875 
Q 45.796875 14.203125 45.796875 21.1875 
Q 45.796875 27.640625 41.28125 31.265625 
Q 36.765625 34.90625 28.71875 34.90625 
L 20.21875 34.90625 
L 20.21875 43.015625 
L 29.109375 43.015625 
Q 36.375 43.015625 40.234375 45.921875 
Q 44.09375 48.828125 44.09375 54.296875 
Q 44.09375 59.90625 40.109375 62.90625 
Q 36.140625 65.921875 28.71875 65.921875 
Q 24.65625 65.921875 20.015625 65.03125 
Q 15.375 64.15625 9.8125 62.3125 
L 9.8125 71.09375 
Q 15.4375 72.65625 20.34375 73.4375 
Q 25.25 74.21875 29.59375 74.21875 
Q 40.828125 74.21875 47.359375 69.109375 
Q 53.90625 64.015625 53.90625 55.328125 
Q 53.90625 49.265625 50.4375 45.09375 
Q 46.96875 40.921875 40.578125 39.3125 
z
" id="DejaVuSans-51"/>
        <path d="M 19.1875 8.296875 
L 53.609375 8.296875 
L 53.609375 0 
L 7.328125 0 
L 7.328125 8.296875 
Q 12.9375 14.109375 22.625 23.890625 
Q 32.328125 33.6875 34.8125 36.53125 
Q 39.546875 41.84375 41.421875 45.53125 
Q 43.3125 49.21875 43.3125 52.78125 
Q 43.3125 58.59375 39.234375 62.25 
Q 35.15625 65.921875 28.609375 65.921875 
Q 23.96875 65.921875 18.8125 64.3125 
Q 13.671875 62.703125 7.8125 59.421875 
L 7.8125 69.390625 
Q 13.765625 71.78125 18.9375 73 
Q 24.125 74.21875 28.421875 74.21875 
Q 39.75 74.21875 46.484375 68.546875 
Q 53.21875 62.890625 53.21875 53.421875 
Q 53.21875 48.921875 51.53125 44.890625 
Q 49.859375 40.875 45.40625 35.40625 
Q 44.1875 33.984375 37.640625 27.21875 
Q 31.109375 20.453125 19.1875 8.296875 
z
" id="DejaVuSans-50"/>
       </defs>
       <use xlink:href="#DejaVuSans-51"/>
       <use x="63.623047" xlink:href="#DejaVuSans-50"/>
      </g>
     </g>
    </g>
    <g id="xtick_2">
     <g id="line2d_3">
      <path clip-path="url(#pd48676990a)" d="M 88.921409 190.527581 
L 88.921409 10.8 
" style="fill:none;stroke:#d3d3d3;stroke-linecap:square;stroke-width:0.8;"/>
     </g>
     <g id="line2d_4">
      <g>
       <use style="stroke:#000000;stroke-width:0.8;" x="88.921409" xlink:href="#m9a0f4115ad" y="190.527581"/>
      </g>
     </g>
     <g id="text_2">
      <!-- 64 -->
      <g transform="translate(82.471269 202.900488)rotate(-315)scale(0.1 -0.1)">
       <defs>
        <path d="M 33.015625 40.375 
Q 26.375 40.375 22.484375 35.828125 
Q 18.609375 31.296875 18.609375 23.390625 
Q 18.609375 15.53125 22.484375 10.953125 
Q 26.375 6.390625 33.015625 6.390625 
Q 39.65625 6.390625 43.53125 10.953125 
Q 47.40625 15.53125 47.40625 23.390625 
Q 47.40625 31.296875 43.53125 35.828125 
Q 39.65625 40.375 33.015625 40.375 
z
M 52.59375 71.296875 
L 52.59375 62.3125 
Q 48.875 64.0625 45.09375 64.984375 
Q 41.3125 65.921875 37.59375 65.921875 
Q 27.828125 65.921875 22.671875 59.328125 
Q 17.53125 52.734375 16.796875 39.40625 
Q 19.671875 43.65625 24.015625 45.921875 
Q 28.375 48.1875 33.59375 48.1875 
Q 44.578125 48.1875 50.953125 41.515625 
Q 57.328125 34.859375 57.328125 23.390625 
Q 57.328125 12.15625 50.6875 5.359375 
Q 44.046875 -1.421875 33.015625 -1.421875 
Q 20.359375 -1.421875 13.671875 8.265625 
Q 6.984375 17.96875 6.984375 36.375 
Q 6.984375 53.65625 15.1875 63.9375 
Q 23.390625 74.21875 37.203125 74.21875 
Q 40.921875 74.21875 44.703125 73.484375 
Q 48.484375 72.75 52.59375 71.296875 
z
" id="DejaVuSans-54"/>
        <path d="M 37.796875 64.3125 
L 12.890625 25.390625 
L 37.796875 25.390625 
z
M 35.203125 72.90625 
L 47.609375 72.90625 
L 47.609375 25.390625 
L 58.015625 25.390625 
L 58.015625 17.1875 
L 47.609375 17.1875 
L 47.609375 0 
L 37.796875 0 
L 37.796875 17.1875 
L 4.890625 17.1875 
L 4.890625 26.703125 
z
" id="DejaVuSans-52"/>
       </defs>
       <use xlink:href="#DejaVuSans-54"/>
       <use x="63.623047" xlink:href="#DejaVuSans-52"/>
      </g>
     </g>
    </g>
    <g id="xtick_3">
     <g id="line2d_5">
      <path clip-path="url(#pd48676990a)" d="M 120.672817 190.527581 
L 120.672817 10.8 
" style="fill:none;stroke:#d3d3d3;stroke-linecap:square;stroke-width:0.8;"/>
     </g>
     <g id="line2d_6">
      <g>
       <use style="stroke:#000000;stroke-width:0.8;" x="120.672817" xlink:href="#m9a0f4115ad" y="190.527581"/>
      </g>
     </g>
     <g id="text_3">
      <!-- 128 -->
      <g transform="translate(111.973194 202.900488)rotate(-315)scale(0.1 -0.1)">
       <defs>
        <path d="M 12.40625 8.296875 
L 28.515625 8.296875 
L 28.515625 63.921875 
L 10.984375 60.40625 
L 10.984375 69.390625 
L 28.421875 72.90625 
L 38.28125 72.90625 
L 38.28125 8.296875 
L 54.390625 8.296875 
L 54.390625 0 
L 12.40625 0 
z
" id="DejaVuSans-49"/>
        <path d="M 31.78125 34.625 
Q 24.75 34.625 20.71875 30.859375 
Q 16.703125 27.09375 16.703125 20.515625 
Q 16.703125 13.921875 20.71875 10.15625 
Q 24.75 6.390625 31.78125 6.390625 
Q 38.8125 6.390625 42.859375 10.171875 
Q 46.921875 13.96875 46.921875 20.515625 
Q 46.921875 27.09375 42.890625 30.859375 
Q 38.875 34.625 31.78125 34.625 
z
M 21.921875 38.8125 
Q 15.578125 40.375 12.03125 44.71875 
Q 8.5 49.078125 8.5 55.328125 
Q 8.5 64.0625 14.71875 69.140625 
Q 20.953125 74.21875 31.78125 74.21875 
Q 42.671875 74.21875 48.875 69.140625 
Q 55.078125 64.0625 55.078125 55.328125 
Q 55.078125 49.078125 51.53125 44.71875 
Q 48 40.375 41.703125 38.8125 
Q 48.828125 37.15625 52.796875 32.3125 
Q 56.78125 27.484375 56.78125 20.515625 
Q 56.78125 9.90625 50.3125 4.234375 
Q 43.84375 -1.421875 31.78125 -1.421875 
Q 19.734375 -1.421875 13.25 4.234375 
Q 6.78125 9.90625 6.78125 20.515625 
Q 6.78125 27.484375 10.78125 32.3125 
Q 14.796875 37.15625 21.921875 38.8125 
z
M 18.3125 54.390625 
Q 18.3125 48.734375 21.84375 45.5625 
Q 25.390625 42.390625 31.78125 42.390625 
Q 38.140625 42.390625 41.71875 45.5625 
Q 45.3125 48.734375 45.3125 54.390625 
Q 45.3125 60.0625 41.71875 63.234375 
Q 38.140625 66.40625 31.78125 66.40625 
Q 25.390625 66.40625 21.84375 63.234375 
Q 18.3125 60.0625 18.3125 54.390625 
z
" id="DejaVuSans-56"/>
       </defs>
       <use xlink:href="#DejaVuSans-49"/>
       <use x="63.623047" xlink:href="#DejaVuSans-50"/>
       <use x="127.246094" xlink:href="#DejaVuSans-56"/>
      </g>
     </g>
    </g>
    <g id="xtick_4">
     <g id="line2d_7">
      <path clip-path="url(#pd48676990a)" d="M 152.424226 190.527581 
L 152.424226 10.8 
" style="fill:none;stroke:#d3d3d3;stroke-linecap:square;stroke-width:0.8;"/>
     </g>
     <g id="line2d_8">
      <g>
       <use style="stroke:#000000;stroke-width:0.8;" x="152.424226" xlink:href="#m9a0f4115ad" y="190.527581"/>
      </g>
     </g>
     <g id="text_4">
      <!-- 256 -->
      <g transform="translate(143.724603 202.900488)rotate(-315)scale(0.1 -0.1)">
       <defs>
        <path d="M 10.796875 72.90625 
L 49.515625 72.90625 
L 49.515625 64.59375 
L 19.828125 64.59375 
L 19.828125 46.734375 
Q 21.96875 47.46875 24.109375 47.828125 
Q 26.265625 48.1875 28.421875 48.1875 
Q 40.625 48.1875 47.75 41.5 
Q 54.890625 34.8125 54.890625 23.390625 
Q 54.890625 11.625 47.5625 5.09375 
Q 40.234375 -1.421875 26.90625 -1.421875 
Q 22.3125 -1.421875 17.546875 -0.640625 
Q 12.796875 0.140625 7.71875 1.703125 
L 7.71875 11.625 
Q 12.109375 9.234375 16.796875 8.0625 
Q 21.484375 6.890625 26.703125 6.890625 
Q 35.15625 6.890625 40.078125 11.328125 
Q 45.015625 15.765625 45.015625 23.390625 
Q 45.015625 31 40.078125 35.4375 
Q 35.15625 39.890625 26.703125 39.890625 
Q 22.75 39.890625 18.8125 39.015625 
Q 14.890625 38.140625 10.796875 36.28125 
z
" id="DejaVuSans-53"/>
       </defs>
       <use xlink:href="#DejaVuSans-50"/>
       <use x="63.623047" xlink:href="#DejaVuSans-53"/>
       <use x="127.246094" xlink:href="#DejaVuSans-54"/>
      </g>
     </g>
    </g>
    <g id="xtick_5">
     <g id="line2d_9">
      <path clip-path="url(#pd48676990a)" d="M 184.175634 190.527581 
L 184.175634 10.8 
" style="fill:none;stroke:#d3d3d3;stroke-linecap:square;stroke-width:0.8;"/>
     </g>
     <g id="line2d_10">
      <g>
       <use style="stroke:#000000;stroke-width:0.8;" x="184.175634" xlink:href="#m9a0f4115ad" y="190.527581"/>
      </g>
     </g>
     <g id="text_5">
      <!-- 512 -->
      <g transform="translate(175.476011 202.900488)rotate(-315)scale(0.1 -0.1)">
       <use xlink:href="#DejaVuSans-53"/>
       <use x="63.623047" xlink:href="#DejaVuSans-49"/>
       <use x="127.246094" xlink:href="#DejaVuSans-50"/>
      </g>
     </g>
    </g>
    <g id="xtick_6">
     <g id="line2d_11">
      <path clip-path="url(#pd48676990a)" d="M 215.927043 190.527581 
L 215.927043 10.8 
" style="fill:none;stroke:#d3d3d3;stroke-linecap:square;stroke-width:0.8;"/>
     </g>
     <g id="line2d_12">
      <g>
       <use style="stroke:#000000;stroke-width:0.8;" x="215.927043" xlink:href="#m9a0f4115ad" y="190.527581"/>
      </g>
     </g>
     <g id="text_6">
      <!-- 1024 -->
      <g transform="translate(204.977936 202.900488)rotate(-315)scale(0.1 -0.1)">
       <defs>
        <path d="M 31.78125 66.40625 
Q 24.171875 66.40625 20.328125 58.90625 
Q 16.5 51.421875 16.5 36.375 
Q 16.5 21.390625 20.328125 13.890625 
Q 24.171875 6.390625 31.78125 6.390625 
Q 39.453125 6.390625 43.28125 13.890625 
Q 47.125 21.390625 47.125 36.375 
Q 47.125 51.421875 43.28125 58.90625 
Q 39.453125 66.40625 31.78125 66.40625 
z
M 31.78125 74.21875 
Q 44.046875 74.21875 50.515625 64.515625 
Q 56.984375 54.828125 56.984375 36.375 
Q 56.984375 17.96875 50.515625 8.265625 
Q 44.046875 -1.421875 31.78125 -1.421875 
Q 19.53125 -1.421875 13.0625 8.265625 
Q 6.59375 17.96875 6.59375 36.375 
Q 6.59375 54.828125 13.0625 64.515625 
Q 19.53125 74.21875 31.78125 74.21875 
z
" id="DejaVuSans-48"/>
       </defs>
       <use xlink:href="#DejaVuSans-49"/>
       <use x="63.623047" xlink:href="#DejaVuSans-48"/>
       <use x="127.246094" xlink:href="#DejaVuSans-50"/>
       <use x="190.869141" xlink:href="#DejaVuSans-52"/>
      </g>
     </g>
    </g>
    <g id="xtick_7">
     <g id="line2d_13">
      <path clip-path="url(#pd48676990a)" d="M 247.678452 190.527581 
L 247.678452 10.8 
" style="fill:none;stroke:#d3d3d3;stroke-linecap:square;stroke-width:0.8;"/>
     </g>
     <g id="line2d_14">
      <g>
       <use style="stroke:#000000;stroke-width:0.8;" x="247.678452" xlink:href="#m9a0f4115ad" y="190.527581"/>
      </g>
     </g>
     <g id="text_7">
      <!-- 2048 -->
      <g transform="translate(236.729345 202.900488)rotate(-315)scale(0.1 -0.1)">
       <use xlink:href="#DejaVuSans-50"/>
       <use x="63.623047" xlink:href="#DejaVuSans-48"/>
       <use x="127.246094" xlink:href="#DejaVuSans-52"/>
       <use x="190.869141" xlink:href="#DejaVuSans-56"/>
      </g>
     </g>
    </g>
    <g id="xtick_8">
     <g id="line2d_15">
      <path clip-path="url(#pd48676990a)" d="M 279.42986 190.527581 
L 279.42986 10.8 
" style="fill:none;stroke:#d3d3d3;stroke-linecap:square;stroke-width:0.8;"/>
     </g>
     <g id="line2d_16">
      <g>
       <use style="stroke:#000000;stroke-width:0.8;" x="279.42986" xlink:href="#m9a0f4115ad" y="190.527581"/>
      </g>
     </g>
     <g id="text_8">
      <!-- 4096 -->
      <g transform="translate(268.480754 202.900488)rotate(-315)scale(0.1 -0.1)">
       <defs>
        <path d="M 10.984375 1.515625 
L 10.984375 10.5 
Q 14.703125 8.734375 18.5 7.8125 
Q 22.3125 6.890625 25.984375 6.890625 
Q 35.75 6.890625 40.890625 13.453125 
Q 46.046875 20.015625 46.78125 33.40625 
Q 43.953125 29.203125 39.59375 26.953125 
Q 35.25 24.703125 29.984375 24.703125 
Q 19.046875 24.703125 12.671875 31.3125 
Q 6.296875 37.9375 6.296875 49.421875 
Q 6.296875 60.640625 12.9375 67.421875 
Q 19.578125 74.21875 30.609375 74.21875 
Q 43.265625 74.21875 49.921875 64.515625 
Q 56.59375 54.828125 56.59375 36.375 
Q 56.59375 19.140625 48.40625 8.859375 
Q 40.234375 -1.421875 26.421875 -1.421875 
Q 22.703125 -1.421875 18.890625 -0.6875 
Q 15.09375 0.046875 10.984375 1.515625 
z
M 30.609375 32.421875 
Q 37.25 32.421875 41.125 36.953125 
Q 45.015625 41.5 45.015625 49.421875 
Q 45.015625 57.28125 41.125 61.84375 
Q 37.25 66.40625 30.609375 66.40625 
Q 23.96875 66.40625 20.09375 61.84375 
Q 16.21875 57.28125 16.21875 49.421875 
Q 16.21875 41.5 20.09375 36.953125 
Q 23.96875 32.421875 30.609375 32.421875 
z
" id="DejaVuSans-57"/>
       </defs>
       <use xlink:href="#DejaVuSans-52"/>
       <use x="63.623047" xlink:href="#DejaVuSans-48"/>
       <use x="127.246094" xlink:href="#DejaVuSans-57"/>
       <use x="190.869141" xlink:href="#DejaVuSans-54"/>
      </g>
     </g>
    </g>
    <g id="xtick_9">
     <g id="line2d_17">
      <path clip-path="url(#pd48676990a)" d="M 311.181269 190.527581 
L 311.181269 10.8 
" style="fill:none;stroke:#d3d3d3;stroke-linecap:square;stroke-width:0.8;"/>
     </g>
     <g id="line2d_18">
      <g>
       <use style="stroke:#000000;stroke-width:0.8;" x="311.181269" xlink:href="#m9a0f4115ad" y="190.527581"/>
      </g>
     </g>
     <g id="text_9">
      <!-- 8192 -->
      <g transform="translate(300.232162 202.900488)rotate(-315)scale(0.1 -0.1)">
       <use xlink:href="#DejaVuSans-56"/>
       <use x="63.623047" xlink:href="#DejaVuSans-49"/>
       <use x="127.246094" xlink:href="#DejaVuSans-57"/>
       <use x="190.869141" xlink:href="#DejaVuSans-50"/>
      </g>
     </g>
    </g>
    <g id="xtick_10">
     <g id="line2d_19">
      <path clip-path="url(#pd48676990a)" d="M 342.932677 190.527581 
L 342.932677 10.8 
" style="fill:none;stroke:#d3d3d3;stroke-linecap:square;stroke-width:0.8;"/>
     </g>
     <g id="line2d_20">
      <g>
       <use style="stroke:#000000;stroke-width:0.8;" x="342.932677" xlink:href="#m9a0f4115ad" y="190.527581"/>
      </g>
     </g>
     <g id="text_10">
      <!-- 16384 -->
      <g transform="translate(329.734087 202.900488)rotate(-315)scale(0.1 -0.1)">
       <use xlink:href="#DejaVuSans-49"/>
       <use x="63.623047" xlink:href="#DejaVuSans-54"/>
       <use x="127.246094" xlink:href="#DejaVuSans-51"/>
       <use x="190.869141" xlink:href="#DejaVuSans-56"/>
       <use x="254.492188" xlink:href="#DejaVuSans-52"/>
      </g>
     </g>
    </g>
    <g id="xtick_11">
     <g id="line2d_21">
      <path clip-path="url(#pd48676990a)" d="M 374.684086 190.527581 
L 374.684086 10.8 
" style="fill:none;stroke:#d3d3d3;stroke-linecap:square;stroke-width:0.8;"/>
     </g>
     <g id="line2d_22">
      <g>
       <use style="stroke:#000000;stroke-width:0.8;" x="374.684086" xlink:href="#m9a0f4115ad" y="190.527581"/>
      </g>
     </g>
     <g id="text_11">
      <!-- 32768 -->
      <g transform="translate(361.485496 202.900488)rotate(-315)scale(0.1 -0.1)">
       <defs>
        <path d="M 8.203125 72.90625 
L 55.078125 72.90625 
L 55.078125 68.703125 
L 28.609375 0 
L 18.3125 0 
L 43.21875 64.59375 
L 8.203125 64.59375 
z
" id="DejaVuSans-55"/>
       </defs>
       <use xlink:href="#DejaVuSans-51"/>
       <use x="63.623047" xlink:href="#DejaVuSans-50"/>
       <use x="127.246094" xlink:href="#DejaVuSans-55"/>
       <use x="190.869141" xlink:href="#DejaVuSans-54"/>
       <use x="254.492188" xlink:href="#DejaVuSans-56"/>
      </g>
     </g>
    </g>
    <g id="xtick_12">
     <g id="line2d_23">
      <path clip-path="url(#pd48676990a)" d="M 406.435495 190.527581 
L 406.435495 10.8 
" style="fill:none;stroke:#d3d3d3;stroke-linecap:square;stroke-width:0.8;"/>
     </g>
     <g id="line2d_24">
      <g>
       <use style="stroke:#000000;stroke-width:0.8;" x="406.435495" xlink:href="#m9a0f4115ad" y="190.527581"/>
      </g>
     </g>
     <g id="text_12">
      <!-- 65536 -->
      <g transform="translate(393.236905 202.900488)rotate(-315)scale(0.1 -0.1)">
       <use xlink:href="#DejaVuSans-54"/>
       <use x="63.623047" xlink:href="#DejaVuSans-53"/>
       <use x="127.246094" xlink:href="#DejaVuSans-53"/>
       <use x="190.869141" xlink:href="#DejaVuSans-51"/>
       <use x="254.492188" xlink:href="#DejaVuSans-54"/>
      </g>
     </g>
    </g>
    <g id="text_13">
     <!-- Frame size -->
     <g transform="translate(204.940864 238.464321)scale(0.1 -0.1)">
      <defs>
       <path d="M 9.8125 72.90625 
L 51.703125 72.90625 
L 51.703125 64.59375 
L 19.671875 64.59375 
L 19.671875 43.109375 
L 48.578125 43.109375 
L 48.578125 34.8125 
L 19.671875 34.8125 
L 19.671875 0 
L 9.8125 0 
z
" id="DejaVuSans-70"/>
       <path d="M 41.109375 46.296875 
Q 39.59375 47.171875 37.8125 47.578125 
Q 36.03125 48 33.890625 48 
Q 26.265625 48 22.1875 43.046875 
Q 18.109375 38.09375 18.109375 28.8125 
L 18.109375 0 
L 9.078125 0 
L 9.078125 54.6875 
L 18.109375 54.6875 
L 18.109375 46.1875 
Q 20.953125 51.171875 25.484375 53.578125 
Q 30.03125 56 36.53125 56 
Q 37.453125 56 38.578125 55.875 
Q 39.703125 55.765625 41.0625 55.515625 
z
" id="DejaVuSans-114"/>
       <path d="M 34.28125 27.484375 
Q 23.390625 27.484375 19.1875 25 
Q 14.984375 22.515625 14.984375 16.5 
Q 14.984375 11.71875 18.140625 8.90625 
Q 21.296875 6.109375 26.703125 6.109375 
Q 34.1875 6.109375 38.703125 11.40625 
Q 43.21875 16.703125 43.21875 25.484375 
L 43.21875 27.484375 
z
M 52.203125 31.203125 
L 52.203125 0 
L 43.21875 0 
L 43.21875 8.296875 
Q 40.140625 3.328125 35.546875 0.953125 
Q 30.953125 -1.421875 24.3125 -1.421875 
Q 15.921875 -1.421875 10.953125 3.296875 
Q 6 8.015625 6 15.921875 
Q 6 25.140625 12.171875 29.828125 
Q 18.359375 34.515625 30.609375 34.515625 
L 43.21875 34.515625 
L 43.21875 35.40625 
Q 43.21875 41.609375 39.140625 45 
Q 35.0625 48.390625 27.6875 48.390625 
Q 23 48.390625 18.546875 47.265625 
Q 14.109375 46.140625 10.015625 43.890625 
L 10.015625 52.203125 
Q 14.9375 54.109375 19.578125 55.046875 
Q 24.21875 56 28.609375 56 
Q 40.484375 56 46.34375 49.84375 
Q 52.203125 43.703125 52.203125 31.203125 
z
" id="DejaVuSans-97"/>
       <path d="M 52 44.1875 
Q 55.375 50.25 60.0625 53.125 
Q 64.75 56 71.09375 56 
Q 79.640625 56 84.28125 50.015625 
Q 88.921875 44.046875 88.921875 33.015625 
L 88.921875 0 
L 79.890625 0 
L 79.890625 32.71875 
Q 79.890625 40.578125 77.09375 44.375 
Q 74.3125 48.1875 68.609375 48.1875 
Q 61.625 48.1875 57.5625 43.546875 
Q 53.515625 38.921875 53.515625 30.90625 
L 53.515625 0 
L 44.484375 0 
L 44.484375 32.71875 
Q 44.484375 40.625 41.703125 44.40625 
Q 38.921875 48.1875 33.109375 48.1875 
Q 26.21875 48.1875 22.15625 43.53125 
Q 18.109375 38.875 18.109375 30.90625 
L 18.109375 0 
L 9.078125 0 
L 9.078125 54.6875 
L 18.109375 54.6875 
L 18.109375 46.1875 
Q 21.1875 51.21875 25.484375 53.609375 
Q 29.78125 56 35.6875 56 
Q 41.65625 56 45.828125 52.96875 
Q 50 49.953125 52 44.1875 
z
" id="DejaVuSans-109"/>
       <path d="M 56.203125 29.59375 
L 56.203125 25.203125 
L 14.890625 25.203125 
Q 15.484375 15.921875 20.484375 11.0625 
Q 25.484375 6.203125 34.421875 6.203125 
Q 39.59375 6.203125 44.453125 7.46875 
Q 49.3125 8.734375 54.109375 11.28125 
L 54.109375 2.78125 
Q 49.265625 0.734375 44.1875 -0.34375 
Q 39.109375 -1.421875 33.890625 -1.421875 
Q 20.796875 -1.421875 13.15625 6.1875 
Q 5.515625 13.8125 5.515625 26.8125 
Q 5.515625 40.234375 12.765625 48.109375 
Q 20.015625 56 32.328125 56 
Q 43.359375 56 49.78125 48.890625 
Q 56.203125 41.796875 56.203125 29.59375 
z
M 47.21875 32.234375 
Q 47.125 39.59375 43.09375 43.984375 
Q 39.0625 48.390625 32.421875 48.390625 
Q 24.90625 48.390625 20.390625 44.140625 
Q 15.875 39.890625 15.1875 32.171875 
z
" id="DejaVuSans-101"/>
       <path id="DejaVuSans-32"/>
       <path d="M 44.28125 53.078125 
L 44.28125 44.578125 
Q 40.484375 46.53125 36.375 47.5 
Q 32.28125 48.484375 27.875 48.484375 
Q 21.1875 48.484375 17.84375 46.4375 
Q 14.5 44.390625 14.5 40.28125 
Q 14.5 37.15625 16.890625 35.375 
Q 19.28125 33.59375 26.515625 31.984375 
L 29.59375 31.296875 
Q 39.15625 29.25 43.1875 25.515625 
Q 47.21875 21.78125 47.21875 15.09375 
Q 47.21875 7.46875 41.1875 3.015625 
Q 35.15625 -1.421875 24.609375 -1.421875 
Q 20.21875 -1.421875 15.453125 -0.5625 
Q 10.6875 0.296875 5.421875 2 
L 5.421875 11.28125 
Q 10.40625 8.6875 15.234375 7.390625 
Q 20.0625 6.109375 24.8125 6.109375 
Q 31.15625 6.109375 34.5625 8.28125 
Q 37.984375 10.453125 37.984375 14.40625 
Q 37.984375 18.0625 35.515625 20.015625 
Q 33.0625 21.96875 24.703125 23.78125 
L 21.578125 24.515625 
Q 13.234375 26.265625 9.515625 29.90625 
Q 5.8125 33.546875 5.8125 39.890625 
Q 5.8125 47.609375 11.28125 51.796875 
Q 16.75 56 26.8125 56 
Q 31.78125 56 36.171875 55.265625 
Q 40.578125 54.546875 44.28125 53.078125 
z
" id="DejaVuSans-115"/>
       <path d="M 9.421875 54.6875 
L 18.40625 54.6875 
L 18.40625 0 
L 9.421875 0 
z
M 9.421875 75.984375 
L 18.40625 75.984375 
L 18.40625 64.59375 
L 9.421875 64.59375 
z
" id="DejaVuSans-105"/>
       <path d="M 5.515625 54.6875 
L 48.1875 54.6875 
L 48.1875 46.484375 
L 14.40625 7.171875 
L 48.1875 7.171875 
L 48.1875 0 
L 4.296875 0 
L 4.296875 8.203125 
L 38.09375 47.515625 
L 5.515625 47.515625 
z
" id="DejaVuSans-122"/>
      </defs>
      <use xlink:href="#DejaVuSans-70"/>
      <use x="50.269531" xlink:href="#DejaVuSans-114"/>
      <use x="91.382812" xlink:href="#DejaVuSans-97"/>
      <use x="152.662109" xlink:href="#DejaVuSans-109"/>
      <use x="250.074219" xlink:href="#DejaVuSans-101"/>
      <use x="311.597656" xlink:href="#DejaVuSans-32"/>
      <use x="343.384766" xlink:href="#DejaVuSans-115"/>
      <use x="395.484375" xlink:href="#DejaVuSans-105"/>
      <use x="423.267578" xlink:href="#DejaVuSans-122"/>
      <use x="475.757812" xlink:href="#DejaVuSans-101"/>
     </g>
    </g>
   </g>
   <g id="matplotlib.axis_2">
    <g id="ytick_1">
     <g id="line2d_25">
      <path clip-path="url(#pd48676990a)" d="M 57.17 190.527581 
L 406.43829 190.527581 
" style="fill:none;stroke:#d3d3d3;stroke-linecap:square;stroke-width:0.8;"/>
     </g>
     <g id="line2d_26">
      <defs>
       <path d="M 0 0 
L -3.5 0 
" id="mdd22d656c7" style="stroke:#000000;stroke-width:0.8;"/>
      </defs>
      <g>
       <use style="stroke:#000000;stroke-width:0.8;" x="57.17" xlink:href="#mdd22d656c7" y="190.527581"/>
      </g>
     </g>
     <g id="text_14">
      <!-- 0.01 -->
      <g transform="translate(27.904375 194.3268)scale(0.1 -0.1)">
       <defs>
        <path d="M 10.6875 12.40625 
L 21 12.40625 
L 21 0 
L 10.6875 0 
z
" id="DejaVuSans-46"/>
       </defs>
       <use xlink:href="#DejaVuSans-48"/>
       <use x="63.623047" xlink:href="#DejaVuSans-46"/>
       <use x="95.410156" xlink:href="#DejaVuSans-48"/>
       <use x="159.033203" xlink:href="#DejaVuSans-49"/>
      </g>
     </g>
    </g>
    <g id="ytick_2">
     <g id="line2d_27">
      <path clip-path="url(#pd48676990a)" d="M 57.17 155.602764 
L 406.43829 155.602764 
" style="fill:none;stroke:#d3d3d3;stroke-linecap:square;stroke-width:0.8;"/>
     </g>
     <g id="line2d_28">
      <g>
       <use style="stroke:#000000;stroke-width:0.8;" x="57.17" xlink:href="#mdd22d656c7" y="155.602764"/>
      </g>
     </g>
     <g id="text_15">
      <!-- 0.1 -->
      <g transform="translate(34.266875 159.401983)scale(0.1 -0.1)">
       <use xlink:href="#DejaVuSans-48"/>
       <use x="63.623047" xlink:href="#DejaVuSans-46"/>
       <use x="95.410156" xlink:href="#DejaVuSans-49"/>
      </g>
     </g>
    </g>
    <g id="ytick_3">
     <g id="line2d_29">
      <path clip-path="url(#pd48676990a)" d="M 57.17 120.677947 
L 406.43829 120.677947 
" style="fill:none;stroke:#d3d3d3;stroke-linecap:square;stroke-width:0.8;"/>
     </g>
     <g id="line2d_30">
      <g>
       <use style="stroke:#000000;stroke-width:0.8;" x="57.17" xlink:href="#mdd22d656c7" y="120.677947"/>
      </g>
     </g>
     <g id="text_16">
      <!-- 1.0 -->
      <g transform="translate(34.266875 124.477165)scale(0.1 -0.1)">
       <use xlink:href="#DejaVuSans-49"/>
       <use x="63.623047" xlink:href="#DejaVuSans-46"/>
       <use x="95.410156" xlink:href="#DejaVuSans-48"/>
      </g>
     </g>
    </g>
    <g id="ytick_4">
     <g id="line2d_31">
      <path clip-path="url(#pd48676990a)" d="M 57.17 85.753129 
L 406.43829 85.753129 
" style="fill:none;stroke:#d3d3d3;stroke-linecap:square;stroke-width:0.8;"/>
     </g>
     <g id="line2d_32">
      <g>
       <use style="stroke:#000000;stroke-width:0.8;" x="57.17" xlink:href="#mdd22d656c7" y="85.753129"/>
      </g>
     </g>
     <g id="text_17">
      <!-- 10 -->
      <g transform="translate(37.445 89.552348)scale(0.1 -0.1)">
       <use xlink:href="#DejaVuSans-49"/>
       <use x="63.623047" xlink:href="#DejaVuSans-48"/>
      </g>
     </g>
    </g>
    <g id="ytick_5">
     <g id="line2d_33">
      <path clip-path="url(#pd48676990a)" d="M 57.17 50.828312 
L 406.43829 50.828312 
" style="fill:none;stroke:#d3d3d3;stroke-linecap:square;stroke-width:0.8;"/>
     </g>
     <g id="line2d_34">
      <g>
       <use style="stroke:#000000;stroke-width:0.8;" x="57.17" xlink:href="#mdd22d656c7" y="50.828312"/>
      </g>
     </g>
     <g id="text_18">
      <!-- 100 -->
      <g transform="translate(31.0825 54.627531)scale(0.1 -0.1)">
       <use xlink:href="#DejaVuSans-49"/>
       <use x="63.623047" xlink:href="#DejaVuSans-48"/>
       <use x="127.246094" xlink:href="#DejaVuSans-48"/>
      </g>
     </g>
    </g>
    <g id="ytick_6">
     <g id="line2d_35">
      <path clip-path="url(#pd48676990a)" d="M 57.17 15.903495 
L 406.43829 15.903495 
" style="fill:none;stroke:#d3d3d3;stroke-linecap:square;stroke-width:0.8;"/>
     </g>
     <g id="line2d_36">
      <g>
       <use style="stroke:#000000;stroke-width:0.8;" x="57.17" xlink:href="#mdd22d656c7" y="15.903495"/>
      </g>
     </g>
     <g id="text_19">
      <!-- 1000 -->
      <g transform="translate(24.72 19.702714)scale(0.1 -0.1)">
       <use xlink:href="#DejaVuSans-49"/>
       <use x="63.623047" xlink:href="#DejaVuSans-48"/>
       <use x="127.246094" xlink:href="#DejaVuSans-48"/>
       <use x="190.869141" xlink:href="#DejaVuSans-48"/>
      </g>
     </g>
    </g>
    <g id="ytick_7">
     <g id="line2d_37">
      <defs>
       <path d="M 0 0 
L -2 0 
" id="m81f59e232c" style="stroke:#000000;stroke-width:0.6;"/>
      </defs>
      <g>
       <use style="stroke:#000000;stroke-width:0.6;" x="57.17" xlink:href="#m81f59e232c" y="180.014164"/>
      </g>
     </g>
    </g>
    <g id="ytick_8">
     <g id="line2d_38">
      <g>
       <use style="stroke:#000000;stroke-width:0.6;" x="57.17" xlink:href="#m81f59e232c" y="173.864209"/>
      </g>
     </g>
    </g>
    <g id="ytick_9">
     <g id="line2d_39">
      <g>
       <use style="stroke:#000000;stroke-width:0.6;" x="57.17" xlink:href="#m81f59e232c" y="169.500746"/>
      </g>
     </g>
    </g>
    <g id="ytick_10">
     <g id="line2d_40">
      <g>
       <use style="stroke:#000000;stroke-width:0.6;" x="57.17" xlink:href="#m81f59e232c" y="166.116182"/>
      </g>
     </g>
    </g>
    <g id="ytick_11">
     <g id="line2d_41">
      <g>
       <use style="stroke:#000000;stroke-width:0.6;" x="57.17" xlink:href="#m81f59e232c" y="163.350791"/>
      </g>
     </g>
    </g>
    <g id="ytick_12">
     <g id="line2d_42">
      <g>
       <use style="stroke:#000000;stroke-width:0.6;" x="57.17" xlink:href="#m81f59e232c" y="161.012687"/>
      </g>
     </g>
    </g>
    <g id="ytick_13">
     <g id="line2d_43">
      <g>
       <use style="stroke:#000000;stroke-width:0.6;" x="57.17" xlink:href="#m81f59e232c" y="158.987328"/>
      </g>
     </g>
    </g>
    <g id="ytick_14">
     <g id="line2d_44">
      <g>
       <use style="stroke:#000000;stroke-width:0.6;" x="57.17" xlink:href="#m81f59e232c" y="157.200836"/>
      </g>
     </g>
    </g>
    <g id="ytick_15">
     <g id="line2d_45">
      <g>
       <use style="stroke:#000000;stroke-width:0.6;" x="57.17" xlink:href="#m81f59e232c" y="145.089346"/>
      </g>
     </g>
    </g>
    <g id="ytick_16">
     <g id="line2d_46">
      <g>
       <use style="stroke:#000000;stroke-width:0.6;" x="57.17" xlink:href="#m81f59e232c" y="138.939391"/>
      </g>
     </g>
    </g>
    <g id="ytick_17">
     <g id="line2d_47">
      <g>
       <use style="stroke:#000000;stroke-width:0.6;" x="57.17" xlink:href="#m81f59e232c" y="134.575929"/>
      </g>
     </g>
    </g>
    <g id="ytick_18">
     <g id="line2d_48">
      <g>
       <use style="stroke:#000000;stroke-width:0.6;" x="57.17" xlink:href="#m81f59e232c" y="131.191364"/>
      </g>
     </g>
    </g>
    <g id="ytick_19">
     <g id="line2d_49">
      <g>
       <use style="stroke:#000000;stroke-width:0.6;" x="57.17" xlink:href="#m81f59e232c" y="128.425974"/>
      </g>
     </g>
    </g>
    <g id="ytick_20">
     <g id="line2d_50">
      <g>
       <use style="stroke:#000000;stroke-width:0.6;" x="57.17" xlink:href="#m81f59e232c" y="126.087869"/>
      </g>
     </g>
    </g>
    <g id="ytick_21">
     <g id="line2d_51">
      <g>
       <use style="stroke:#000000;stroke-width:0.6;" x="57.17" xlink:href="#m81f59e232c" y="124.062511"/>
      </g>
     </g>
    </g>
    <g id="ytick_22">
     <g id="line2d_52">
      <g>
       <use style="stroke:#000000;stroke-width:0.6;" x="57.17" xlink:href="#m81f59e232c" y="122.276019"/>
      </g>
     </g>
    </g>
    <g id="ytick_23">
     <g id="line2d_53">
      <g>
       <use style="stroke:#000000;stroke-width:0.6;" x="57.17" xlink:href="#m81f59e232c" y="110.164529"/>
      </g>
     </g>
    </g>
    <g id="ytick_24">
     <g id="line2d_54">
      <g>
       <use style="stroke:#000000;stroke-width:0.6;" x="57.17" xlink:href="#m81f59e232c" y="104.014574"/>
      </g>
     </g>
    </g>
    <g id="ytick_25">
     <g id="line2d_55">
      <g>
       <use style="stroke:#000000;stroke-width:0.6;" x="57.17" xlink:href="#m81f59e232c" y="99.651112"/>
      </g>
     </g>
    </g>
    <g id="ytick_26">
     <g id="line2d_56">
      <g>
       <use style="stroke:#000000;stroke-width:0.6;" x="57.17" xlink:href="#m81f59e232c" y="96.266547"/>
      </g>
     </g>
    </g>
    <g id="ytick_27">
     <g id="line2d_57">
      <g>
       <use style="stroke:#000000;stroke-width:0.6;" x="57.17" xlink:href="#m81f59e232c" y="93.501156"/>
      </g>
     </g>
    </g>
    <g id="ytick_28">
     <g id="line2d_58">
      <g>
       <use style="stroke:#000000;stroke-width:0.6;" x="57.17" xlink:href="#m81f59e232c" y="91.163052"/>
      </g>
     </g>
    </g>
    <g id="ytick_29">
     <g id="line2d_59">
      <g>
       <use style="stroke:#000000;stroke-width:0.6;" x="57.17" xlink:href="#m81f59e232c" y="89.137694"/>
      </g>
     </g>
    </g>
    <g id="ytick_30">
     <g id="line2d_60">
      <g>
       <use style="stroke:#000000;stroke-width:0.6;" x="57.17" xlink:href="#m81f59e232c" y="87.351201"/>
      </g>
     </g>
    </g>
    <g id="ytick_31">
     <g id="line2d_61">
      <g>
       <use style="stroke:#000000;stroke-width:0.6;" x="57.17" xlink:href="#m81f59e232c" y="75.239712"/>
      </g>
     </g>
    </g>
    <g id="ytick_32">
     <g id="line2d_62">
      <g>
       <use style="stroke:#000000;stroke-width:0.6;" x="57.17" xlink:href="#m81f59e232c" y="69.089757"/>
      </g>
     </g>
    </g>
    <g id="ytick_33">
     <g id="line2d_63">
      <g>
       <use style="stroke:#000000;stroke-width:0.6;" x="57.17" xlink:href="#m81f59e232c" y="64.726294"/>
      </g>
     </g>
    </g>
    <g id="ytick_34">
     <g id="line2d_64">
      <g>
       <use style="stroke:#000000;stroke-width:0.6;" x="57.17" xlink:href="#m81f59e232c" y="61.34173"/>
      </g>
     </g>
    </g>
    <g id="ytick_35">
     <g id="line2d_65">
      <g>
       <use style="stroke:#000000;stroke-width:0.6;" x="57.17" xlink:href="#m81f59e232c" y="58.576339"/>
      </g>
     </g>
    </g>
    <g id="ytick_36">
     <g id="line2d_66">
      <g>
       <use style="stroke:#000000;stroke-width:0.6;" x="57.17" xlink:href="#m81f59e232c" y="56.238235"/>
      </g>
     </g>
    </g>
    <g id="ytick_37">
     <g id="line2d_67">
      <g>
       <use style="stroke:#000000;stroke-width:0.6;" x="57.17" xlink:href="#m81f59e232c" y="54.212877"/>
      </g>
     </g>
    </g>
    <g id="ytick_38">
     <g id="line2d_68">
      <g>
       <use style="stroke:#000000;stroke-width:0.6;" x="57.17" xlink:href="#m81f59e232c" y="52.426384"/>
      </g>
     </g>
    </g>
    <g id="ytick_39">
     <g id="line2d_69">
      <g>
       <use style="stroke:#000000;stroke-width:0.6;" x="57.17" xlink:href="#m81f59e232c" y="40.314895"/>
      </g>
     </g>
    </g>
    <g id="ytick_40">
     <g id="line2d_70">
      <g>
       <use style="stroke:#000000;stroke-width:0.6;" x="57.17" xlink:href="#m81f59e232c" y="34.16494"/>
      </g>
     </g>
    </g>
    <g id="ytick_41">
     <g id="line2d_71">
      <g>
       <use style="stroke:#000000;stroke-width:0.6;" x="57.17" xlink:href="#m81f59e232c" y="29.801477"/>
      </g>
     </g>
    </g>
    <g id="ytick_42">
     <g id="line2d_72">
      <g>
       <use style="stroke:#000000;stroke-width:0.6;" x="57.17" xlink:href="#m81f59e232c" y="26.416913"/>
      </g>
     </g>
    </g>
    <g id="ytick_43">
     <g id="line2d_73">
      <g>
       <use style="stroke:#000000;stroke-width:0.6;" x="57.17" xlink:href="#m81f59e232c" y="23.651522"/>
      </g>
     </g>
    </g>
    <g id="ytick_44">
     <g id="line2d_74">
      <g>
       <use style="stroke:#000000;stroke-width:0.6;" x="57.17" xlink:href="#m81f59e232c" y="21.313418"/>
      </g>
     </g>
    </g>
    <g id="ytick_45">
     <g id="line2d_75">
      <g>
       <use style="stroke:#000000;stroke-width:0.6;" x="57.17" xlink:href="#m81f59e232c" y="19.288059"/>
      </g>
     </g>
    </g>
    <g id="ytick_46">
     <g id="line2d_76">
      <g>
       <use style="stroke:#000000;stroke-width:0.6;" x="57.17" xlink:href="#m81f59e232c" y="17.501567"/>
      </g>
     </g>
    </g>
    <g id="text_20">
     <!-- Real-time factor -->
     <g transform="translate(18.640313 140.780197)rotate(-90)scale(0.1 -0.1)">
      <defs>
       <path d="M 44.390625 34.1875 
Q 47.5625 33.109375 50.5625 29.59375 
Q 53.5625 26.078125 56.59375 19.921875 
L 66.609375 0 
L 56 0 
L 46.6875 18.703125 
Q 43.0625 26.03125 39.671875 28.421875 
Q 36.28125 30.8125 30.421875 30.8125 
L 19.671875 30.8125 
L 19.671875 0 
L 9.8125 0 
L 9.8125 72.90625 
L 32.078125 72.90625 
Q 44.578125 72.90625 50.734375 67.671875 
Q 56.890625 62.453125 56.890625 51.90625 
Q 56.890625 45.015625 53.6875 40.46875 
Q 50.484375 35.9375 44.390625 34.1875 
z
M 19.671875 64.796875 
L 19.671875 38.921875 
L 32.078125 38.921875 
Q 39.203125 38.921875 42.84375 42.21875 
Q 46.484375 45.515625 46.484375 51.90625 
Q 46.484375 58.296875 42.84375 61.546875 
Q 39.203125 64.796875 32.078125 64.796875 
z
" id="DejaVuSans-82"/>
       <path d="M 9.421875 75.984375 
L 18.40625 75.984375 
L 18.40625 0 
L 9.421875 0 
z
" id="DejaVuSans-108"/>
       <path d="M 4.890625 31.390625 
L 31.203125 31.390625 
L 31.203125 23.390625 
L 4.890625 23.390625 
z
" id="DejaVuSans-45"/>
       <path d="M 18.3125 70.21875 
L 18.3125 54.6875 
L 36.8125 54.6875 
L 36.8125 47.703125 
L 18.3125 47.703125 
L 18.3125 18.015625 
Q 18.3125 11.328125 20.140625 9.421875 
Q 21.96875 7.515625 27.59375 7.515625 
L 36.8125 7.515625 
L 36.8125 0 
L 27.59375 0 
Q 17.1875 0 13.234375 3.875 
Q 9.28125 7.765625 9.28125 18.015625 
L 9.28125 47.703125 
L 2.6875 47.703125 
L 2.6875 54.6875 
L 9.28125 54.6875 
L 9.28125 70.21875 
z
" id="DejaVuSans-116"/>
       <path d="M 37.109375 75.984375 
L 37.109375 68.5 
L 28.515625 68.5 
Q 23.6875 68.5 21.796875 66.546875 
Q 19.921875 64.59375 19.921875 59.515625 
L 19.921875 54.6875 
L 34.71875 54.6875 
L 34.71875 47.703125 
L 19.921875 47.703125 
L 19.921875 0 
L 10.890625 0 
L 10.890625 47.703125 
L 2.296875 47.703125 
L 2.296875 54.6875 
L 10.890625 54.6875 
L 10.890625 58.5 
Q 10.890625 67.625 15.140625 71.796875 
Q 19.390625 75.984375 28.609375 75.984375 
z
" id="DejaVuSans-102"/>
       <path d="M 48.78125 52.59375 
L 48.78125 44.1875 
Q 44.96875 46.296875 41.140625 47.34375 
Q 37.3125 48.390625 33.40625 48.390625 
Q 24.65625 48.390625 19.8125 42.84375 
Q 14.984375 37.3125 14.984375 27.296875 
Q 14.984375 17.28125 19.8125 11.734375 
Q 24.65625 6.203125 33.40625 6.203125 
Q 37.3125 6.203125 41.140625 7.25 
Q 44.96875 8.296875 48.78125 10.40625 
L 48.78125 2.09375 
Q 45.015625 0.34375 40.984375 -0.53125 
Q 36.96875 -1.421875 32.421875 -1.421875 
Q 20.0625 -1.421875 12.78125 6.34375 
Q 5.515625 14.109375 5.515625 27.296875 
Q 5.515625 40.671875 12.859375 48.328125 
Q 20.21875 56 33.015625 56 
Q 37.15625 56 41.109375 55.140625 
Q 45.0625 54.296875 48.78125 52.59375 
z
" id="DejaVuSans-99"/>
       <path d="M 30.609375 48.390625 
Q 23.390625 48.390625 19.1875 42.75 
Q 14.984375 37.109375 14.984375 27.296875 
Q 14.984375 17.484375 19.15625 11.84375 
Q 23.34375 6.203125 30.609375 6.203125 
Q 37.796875 6.203125 41.984375 11.859375 
Q 46.1875 17.53125 46.1875 27.296875 
Q 46.1875 37.015625 41.984375 42.703125 
Q 37.796875 48.390625 30.609375 48.390625 
z
M 30.609375 56 
Q 42.328125 56 49.015625 48.375 
Q 55.71875 40.765625 55.71875 27.296875 
Q 55.71875 13.875 49.015625 6.21875 
Q 42.328125 -1.421875 30.609375 -1.421875 
Q 18.84375 -1.421875 12.171875 6.21875 
Q 5.515625 13.875 5.515625 27.296875 
Q 5.515625 40.765625 12.171875 48.375 
Q 18.84375 56 30.609375 56 
z
" id="DejaVuSans-111"/>
      </defs>
      <use xlink:href="#DejaVuSans-82"/>
      <use x="64.982422" xlink:href="#DejaVuSans-101"/>
      <use x="126.505859" xlink:href="#DejaVuSans-97"/>
      <use x="187.785156" xlink:href="#DejaVuSans-108"/>
      <use x="215.568359" xlink:href="#DejaVuSans-45"/>
      <use x="251.652344" xlink:href="#DejaVuSans-116"/>
      <use x="290.861328" xlink:href="#DejaVuSans-105"/>
      <use x="318.644531" xlink:href="#DejaVuSans-109"/>
      <use x="416.056641" xlink:href="#DejaVuSans-101"/>
      <use x="477.580078" xlink:href="#DejaVuSans-32"/>
      <use x="509.367188" xlink:href="#DejaVuSans-102"/>
      <use x="544.572266" xlink:href="#DejaVuSans-97"/>
      <use x="605.851562" xlink:href="#DejaVuSans-99"/>
      <use x="660.832031" xlink:href="#DejaVuSans-116"/>
      <use x="700.041016" xlink:href="#DejaVuSans-111"/>
      <use x="761.222656" xlink:href="#DejaVuSans-114"/>
     </g>
    </g>
   </g>
   <g id="LineCollection_1">
    <path clip-path="url(#pd48676990a)" d="M 57.17 120.677947 
L 406.435495 120.677947 
" style="fill:none;stroke:#000000;"/>
   </g>
   <g id="line2d_77">
    <path clip-path="url(#pd48676990a)" d="M 57.17 140.691601 
L 88.921409 130.209305 
L 120.672817 119.697285 
L 152.424226 109.246482 
L 184.175634 98.612718 
L 215.927043 88.085101 
L 247.678452 77.592992 
L 279.42986 67.155387 
L 311.181269 57.87512 
L 342.932677 47.608398 
L 374.684086 42.189422 
L 406.435495 39.691191 
" style="fill:none;stroke:#1f77b4;stroke-linecap:square;stroke-width:1.5;"/>
    <defs>
     <path d="M -3 3 
L 3 -3 
M -3 -3 
L 3 3 
" id="mcc0d5596e1" style="stroke:#1f77b4;"/>
    </defs>
    <g clip-path="url(#pd48676990a)">
     <use style="fill:#1f77b4;stroke:#1f77b4;" x="57.17" xlink:href="#mcc0d5596e1" y="140.691601"/>
     <use style="fill:#1f77b4;stroke:#1f77b4;" x="88.921409" xlink:href="#mcc0d5596e1" y="130.209305"/>
     <use style="fill:#1f77b4;stroke:#1f77b4;" x="120.672817" xlink:href="#mcc0d5596e1" y="119.697285"/>
     <use style="fill:#1f77b4;stroke:#1f77b4;" x="152.424226" xlink:href="#mcc0d5596e1" y="109.246482"/>
     <use style="fill:#1f77b4;stroke:#1f77b4;" x="184.175634" xlink:href="#mcc0d5596e1" y="98.612718"/>
     <use style="fill:#1f77b4;stroke:#1f77b4;" x="215.927043" xlink:href="#mcc0d5596e1" y="88.085101"/>
     <use style="fill:#1f77b4;stroke:#1f77b4;" x="247.678452" xlink:href="#mcc0d5596e1" y="77.592992"/>
     <use style="fill:#1f77b4;stroke:#1f77b4;" x="279.42986" xlink:href="#mcc0d5596e1" y="67.155387"/>
     <use style="fill:#1f77b4;stroke:#1f77b4;" x="311.181269" xlink:href="#mcc0d5596e1" y="57.87512"/>
     <use style="fill:#1f77b4;stroke:#1f77b4;" x="342.932677" xlink:href="#mcc0d5596e1" y="47.608398"/>
     <use style="fill:#1f77b4;stroke:#1f77b4;" x="374.684086" xlink:href="#mcc0d5596e1" y="42.189422"/>
     <use style="fill:#1f77b4;stroke:#1f77b4;" x="406.435495" xlink:href="#mcc0d5596e1" y="39.691191"/>
    </g>
   </g>
   <g id="line2d_78">
    <path clip-path="url(#pd48676990a)" d="M 57.17 191.846041 
L 88.921409 181.713207 
L 120.672817 168.67147 
L 152.424226 159.053925 
L 184.175634 147.967941 
L 215.927043 138.458192 
L 247.678452 131.242583 
L 279.42986 120.401498 
L 311.181269 113.318546 
L 342.932677 111.485081 
L 374.684086 110.245266 
L 406.435495 107.448723 
" style="fill:none;stroke:#1f77b4;stroke-dasharray:5.55,2.4;stroke-dashoffset:0;stroke-width:1.5;"/>
    <g clip-path="url(#pd48676990a)">
     <use style="fill:#1f77b4;stroke:#1f77b4;" x="57.17" xlink:href="#mcc0d5596e1" y="191.846041"/>
     <use style="fill:#1f77b4;stroke:#1f77b4;" x="88.921409" xlink:href="#mcc0d5596e1" y="181.713207"/>
     <use style="fill:#1f77b4;stroke:#1f77b4;" x="120.672817" xlink:href="#mcc0d5596e1" y="168.67147"/>
     <use style="fill:#1f77b4;stroke:#1f77b4;" x="152.424226" xlink:href="#mcc0d5596e1" y="159.053925"/>
     <use style="fill:#1f77b4;stroke:#1f77b4;" x="184.175634" xlink:href="#mcc0d5596e1" y="147.967941"/>
     <use style="fill:#1f77b4;stroke:#1f77b4;" x="215.927043" xlink:href="#mcc0d5596e1" y="138.458192"/>
     <use style="fill:#1f77b4;stroke:#1f77b4;" x="247.678452" xlink:href="#mcc0d5596e1" y="131.242583"/>
     <use style="fill:#1f77b4;stroke:#1f77b4;" x="279.42986" xlink:href="#mcc0d5596e1" y="120.401498"/>
     <use style="fill:#1f77b4;stroke:#1f77b4;" x="311.181269" xlink:href="#mcc0d5596e1" y="113.318546"/>
     <use style="fill:#1f77b4;stroke:#1f77b4;" x="342.932677" xlink:href="#mcc0d5596e1" y="111.485081"/>
     <use style="fill:#1f77b4;stroke:#1f77b4;" x="374.684086" xlink:href="#mcc0d5596e1" y="110.245266"/>
     <use style="fill:#1f77b4;stroke:#1f77b4;" x="406.435495" xlink:href="#mcc0d5596e1" y="107.448723"/>
    </g>
   </g>
   <g id="line2d_79">
    <path clip-path="url(#pd48676990a)" d="M 57.17 130.105124 
L 88.921409 119.652482 
L 120.672817 108.973062 
L 152.424226 97.329073 
L 184.175634 86.827429 
L 215.927043 76.386097 
L 247.678452 65.806039 
L 279.42986 55.355042 
L 311.181269 44.809538 
L 342.932677 35.849988 
L 374.684086 26.772252 
L 406.435495 20.514182 
" style="fill:none;stroke:#ff7f0e;stroke-linecap:square;stroke-width:1.5;"/>
    <defs>
     <path d="M -3 0 
L 3 0 
M 0 3 
L 0 -3 
" id="m86c13913db" style="stroke:#ff7f0e;"/>
    </defs>
    <g clip-path="url(#pd48676990a)">
     <use style="fill:#ff7f0e;stroke:#ff7f0e;" x="57.17" xlink:href="#m86c13913db" y="130.105124"/>
     <use style="fill:#ff7f0e;stroke:#ff7f0e;" x="88.921409" xlink:href="#m86c13913db" y="119.652482"/>
     <use style="fill:#ff7f0e;stroke:#ff7f0e;" x="120.672817" xlink:href="#m86c13913db" y="108.973062"/>
     <use style="fill:#ff7f0e;stroke:#ff7f0e;" x="152.424226" xlink:href="#m86c13913db" y="97.329073"/>
     <use style="fill:#ff7f0e;stroke:#ff7f0e;" x="184.175634" xlink:href="#m86c13913db" y="86.827429"/>
     <use style="fill:#ff7f0e;stroke:#ff7f0e;" x="215.927043" xlink:href="#m86c13913db" y="76.386097"/>
     <use style="fill:#ff7f0e;stroke:#ff7f0e;" x="247.678452" xlink:href="#m86c13913db" y="65.806039"/>
     <use style="fill:#ff7f0e;stroke:#ff7f0e;" x="279.42986" xlink:href="#m86c13913db" y="55.355042"/>
     <use style="fill:#ff7f0e;stroke:#ff7f0e;" x="311.181269" xlink:href="#m86c13913db" y="44.809538"/>
     <use style="fill:#ff7f0e;stroke:#ff7f0e;" x="342.932677" xlink:href="#m86c13913db" y="35.849988"/>
     <use style="fill:#ff7f0e;stroke:#ff7f0e;" x="374.684086" xlink:href="#m86c13913db" y="26.772252"/>
     <use style="fill:#ff7f0e;stroke:#ff7f0e;" x="406.435495" xlink:href="#m86c13913db" y="20.514182"/>
    </g>
   </g>
   <g id="line2d_80">
    <path clip-path="url(#pd48676990a)" d="M 57.17 170.796577 
L 88.921409 160.505399 
L 120.672817 150.340858 
L 152.424226 140.403324 
L 184.175634 130.486293 
L 215.927043 119.240913 
L 247.678452 108.730539 
L 279.42986 101.930909 
L 311.181269 97.447501 
L 342.932677 93.892594 
L 374.684086 91.493555 
L 406.435495 90.828186 
" style="fill:none;stroke:#ff7f0e;stroke-dasharray:5.55,2.4;stroke-dashoffset:0;stroke-width:1.5;"/>
    <g clip-path="url(#pd48676990a)">
     <use style="fill:#ff7f0e;stroke:#ff7f0e;" x="57.17" xlink:href="#m86c13913db" y="170.796577"/>
     <use style="fill:#ff7f0e;stroke:#ff7f0e;" x="88.921409" xlink:href="#m86c13913db" y="160.505399"/>
     <use style="fill:#ff7f0e;stroke:#ff7f0e;" x="120.672817" xlink:href="#m86c13913db" y="150.340858"/>
     <use style="fill:#ff7f0e;stroke:#ff7f0e;" x="152.424226" xlink:href="#m86c13913db" y="140.403324"/>
     <use style="fill:#ff7f0e;stroke:#ff7f0e;" x="184.175634" xlink:href="#m86c13913db" y="130.486293"/>
     <use style="fill:#ff7f0e;stroke:#ff7f0e;" x="215.927043" xlink:href="#m86c13913db" y="119.240913"/>
     <use style="fill:#ff7f0e;stroke:#ff7f0e;" x="247.678452" xlink:href="#m86c13913db" y="108.730539"/>
     <use style="fill:#ff7f0e;stroke:#ff7f0e;" x="279.42986" xlink:href="#m86c13913db" y="101.930909"/>
     <use style="fill:#ff7f0e;stroke:#ff7f0e;" x="311.181269" xlink:href="#m86c13913db" y="97.447501"/>
     <use style="fill:#ff7f0e;stroke:#ff7f0e;" x="342.932677" xlink:href="#m86c13913db" y="93.892594"/>
     <use style="fill:#ff7f0e;stroke:#ff7f0e;" x="374.684086" xlink:href="#m86c13913db" y="91.493555"/>
     <use style="fill:#ff7f0e;stroke:#ff7f0e;" x="406.435495" xlink:href="#m86c13913db" y="90.828186"/>
    </g>
   </g>
   <g id="line2d_81">
    <path clip-path="url(#pd48676990a)" d="M 57.17 115.785632 
L 88.921409 110.075131 
L 120.672817 107.659469 
L 152.424226 106.39889 
L 184.175634 105.584641 
L 215.927043 105.229356 
L 247.678452 104.994673 
L 279.42986 105.030904 
L 311.181269 105.108096 
L 342.932677 105.112531 
L 374.684086 105.061682 
L 406.435495 105.058543 
" style="fill:none;stroke:#2ca02c;stroke-linecap:square;stroke-width:1.5;"/>
    <defs>
     <path d="M 0 1.5 
C 0.397805 1.5 0.77937 1.341951 1.06066 1.06066 
C 1.341951 0.77937 1.5 0.397805 1.5 0 
C 1.5 -0.397805 1.341951 -0.77937 1.06066 -1.06066 
C 0.77937 -1.341951 0.397805 -1.5 0 -1.5 
C -0.397805 -1.5 -0.77937 -1.341951 -1.06066 -1.06066 
C -1.341951 -0.77937 -1.5 -0.397805 -1.5 0 
C -1.5 0.397805 -1.341951 0.77937 -1.06066 1.06066 
C -0.77937 1.341951 -0.397805 1.5 0 1.5 
z
" id="maa472dd87b" style="stroke:#2ca02c;"/>
    </defs>
    <g clip-path="url(#pd48676990a)">
     <use style="fill:#2ca02c;stroke:#2ca02c;" x="57.17" xlink:href="#maa472dd87b" y="115.785632"/>
     <use style="fill:#2ca02c;stroke:#2ca02c;" x="88.921409" xlink:href="#maa472dd87b" y="110.075131"/>
     <use style="fill:#2ca02c;stroke:#2ca02c;" x="120.672817" xlink:href="#maa472dd87b" y="107.659469"/>
     <use style="fill:#2ca02c;stroke:#2ca02c;" x="152.424226" xlink:href="#maa472dd87b" y="106.39889"/>
     <use style="fill:#2ca02c;stroke:#2ca02c;" x="184.175634" xlink:href="#maa472dd87b" y="105.584641"/>
     <use style="fill:#2ca02c;stroke:#2ca02c;" x="215.927043" xlink:href="#maa472dd87b" y="105.229356"/>
     <use style="fill:#2ca02c;stroke:#2ca02c;" x="247.678452" xlink:href="#maa472dd87b" y="104.994673"/>
     <use style="fill:#2ca02c;stroke:#2ca02c;" x="279.42986" xlink:href="#maa472dd87b" y="105.030904"/>
     <use style="fill:#2ca02c;stroke:#2ca02c;" x="311.181269" xlink:href="#maa472dd87b" y="105.108096"/>
     <use style="fill:#2ca02c;stroke:#2ca02c;" x="342.932677" xlink:href="#maa472dd87b" y="105.112531"/>
     <use style="fill:#2ca02c;stroke:#2ca02c;" x="374.684086" xlink:href="#maa472dd87b" y="105.061682"/>
     <use style="fill:#2ca02c;stroke:#2ca02c;" x="406.435495" xlink:href="#maa472dd87b" y="105.058543"/>
    </g>
   </g>
   <g id="line2d_82">
    <path clip-path="url(#pd48676990a)" d="M 57.17 127.322577 
L 88.921409 125.423276 
L 120.672817 124.330313 
L 152.424226 123.968394 
L 184.175634 123.62267 
L 215.927043 121.914934 
L 247.678452 122.38281 
L 279.42986 121.174784 
L 311.181269 123.021793 
L 342.932677 122.404794 
L 374.684086 122.241537 
L 406.435495 123.888717 
" style="fill:none;stroke:#2ca02c;stroke-dasharray:5.55,2.4;stroke-dashoffset:0;stroke-width:1.5;"/>
    <g clip-path="url(#pd48676990a)">
     <use style="fill:#2ca02c;stroke:#2ca02c;" x="57.17" xlink:href="#maa472dd87b" y="127.322577"/>
     <use style="fill:#2ca02c;stroke:#2ca02c;" x="88.921409" xlink:href="#maa472dd87b" y="125.423276"/>
     <use style="fill:#2ca02c;stroke:#2ca02c;" x="120.672817" xlink:href="#maa472dd87b" y="124.330313"/>
     <use style="fill:#2ca02c;stroke:#2ca02c;" x="152.424226" xlink:href="#maa472dd87b" y="123.968394"/>
     <use style="fill:#2ca02c;stroke:#2ca02c;" x="184.175634" xlink:href="#maa472dd87b" y="123.62267"/>
     <use style="fill:#2ca02c;stroke:#2ca02c;" x="215.927043" xlink:href="#maa472dd87b" y="121.914934"/>
     <use style="fill:#2ca02c;stroke:#2ca02c;" x="247.678452" xlink:href="#maa472dd87b" y="122.38281"/>
     <use style="fill:#2ca02c;stroke:#2ca02c;" x="279.42986" xlink:href="#maa472dd87b" y="121.174784"/>
     <use style="fill:#2ca02c;stroke:#2ca02c;" x="311.181269" xlink:href="#maa472dd87b" y="123.021793"/>
     <use style="fill:#2ca02c;stroke:#2ca02c;" x="342.932677" xlink:href="#maa472dd87b" y="122.404794"/>
     <use style="fill:#2ca02c;stroke:#2ca02c;" x="374.684086" xlink:href="#maa472dd87b" y="122.241537"/>
     <use style="fill:#2ca02c;stroke:#2ca02c;" x="406.435495" xlink:href="#maa472dd87b" y="123.888717"/>
    </g>
   </g>
   <g id="patch_3">
    <path d="M 57.17 190.527581 
L 57.17 10.8 
" style="fill:none;stroke:#000000;stroke-linecap:square;stroke-linejoin:miter;stroke-width:0.8;"/>
   </g>
   <g id="patch_4">
    <path d="M 57.17 190.527581 
L 406.43829 190.527581 
" style="fill:none;stroke:#000000;stroke-linecap:square;stroke-linejoin:miter;stroke-width:0.8;"/>
   </g>
   <g id="legend_1">
    <g id="patch_5">
     <path d="M 64.17 62.834375 
L 149.93875 62.834375 
Q 151.93875 62.834375 151.93875 60.834375 
L 151.93875 17.8 
Q 151.93875 15.8 149.93875 15.8 
L 64.17 15.8 
Q 62.17 15.8 62.17 17.8 
L 62.17 60.834375 
Q 62.17 62.834375 64.17 62.834375 
z
" style="fill:#ffffff;opacity:0.8;stroke:#cccccc;stroke-linejoin:miter;"/>
    </g>
    <g id="line2d_83">
     <path d="M 66.17 23.898438 
L 86.17 23.898438 
" style="fill:none;stroke:#1f77b4;stroke-linecap:square;stroke-width:1.5;"/>
    </g>
    <g id="line2d_84">
     <g>
      <use style="fill:#1f77b4;stroke:#1f77b4;" x="76.17" xlink:href="#mcc0d5596e1" y="23.898438"/>
     </g>
    </g>
    <g id="text_21">
     <!-- TCN-324-N -->
     <g transform="translate(94.17 27.398438)scale(0.1 -0.1)">
      <defs>
       <path d="M -0.296875 72.90625 
L 61.375 72.90625 
L 61.375 64.59375 
L 35.5 64.59375 
L 35.5 0 
L 25.59375 0 
L 25.59375 64.59375 
L -0.296875 64.59375 
z
" id="DejaVuSans-84"/>
       <path d="M 64.40625 67.28125 
L 64.40625 56.890625 
Q 59.421875 61.53125 53.78125 63.8125 
Q 48.140625 66.109375 41.796875 66.109375 
Q 29.296875 66.109375 22.65625 58.46875 
Q 16.015625 50.828125 16.015625 36.375 
Q 16.015625 21.96875 22.65625 14.328125 
Q 29.296875 6.6875 41.796875 6.6875 
Q 48.140625 6.6875 53.78125 8.984375 
Q 59.421875 11.28125 64.40625 15.921875 
L 64.40625 5.609375 
Q 59.234375 2.09375 53.4375 0.328125 
Q 47.65625 -1.421875 41.21875 -1.421875 
Q 24.65625 -1.421875 15.125 8.703125 
Q 5.609375 18.84375 5.609375 36.375 
Q 5.609375 53.953125 15.125 64.078125 
Q 24.65625 74.21875 41.21875 74.21875 
Q 47.75 74.21875 53.53125 72.484375 
Q 59.328125 70.75 64.40625 67.28125 
z
" id="DejaVuSans-67"/>
       <path d="M 9.8125 72.90625 
L 23.09375 72.90625 
L 55.421875 11.921875 
L 55.421875 72.90625 
L 64.984375 72.90625 
L 64.984375 0 
L 51.703125 0 
L 19.390625 60.984375 
L 19.390625 0 
L 9.8125 0 
z
" id="DejaVuSans-78"/>
      </defs>
      <use xlink:href="#DejaVuSans-84"/>
      <use x="55.208984" xlink:href="#DejaVuSans-67"/>
      <use x="125.033203" xlink:href="#DejaVuSans-78"/>
      <use x="199.837891" xlink:href="#DejaVuSans-45"/>
      <use x="235.921875" xlink:href="#DejaVuSans-51"/>
      <use x="299.544922" xlink:href="#DejaVuSans-50"/>
      <use x="363.167969" xlink:href="#DejaVuSans-52"/>
      <use x="426.791016" xlink:href="#DejaVuSans-45"/>
      <use x="462.875" xlink:href="#DejaVuSans-78"/>
     </g>
    </g>
    <g id="line2d_85">
     <path d="M 66.17 38.576562 
L 86.17 38.576562 
" style="fill:none;stroke:#ff7f0e;stroke-linecap:square;stroke-width:1.5;"/>
    </g>
    <g id="line2d_86">
     <g>
      <use style="fill:#ff7f0e;stroke:#ff7f0e;" x="76.17" xlink:href="#m86c13913db" y="38.576562"/>
     </g>
    </g>
    <g id="text_22">
     <!-- TCN-300-C -->
     <g transform="translate(94.17 42.076562)scale(0.1 -0.1)">
      <use xlink:href="#DejaVuSans-84"/>
      <use x="55.208984" xlink:href="#DejaVuSans-67"/>
      <use x="125.033203" xlink:href="#DejaVuSans-78"/>
      <use x="199.837891" xlink:href="#DejaVuSans-45"/>
      <use x="235.921875" xlink:href="#DejaVuSans-51"/>
      <use x="299.544922" xlink:href="#DejaVuSans-48"/>
      <use x="363.167969" xlink:href="#DejaVuSans-48"/>
      <use x="426.791016" xlink:href="#DejaVuSans-45"/>
      <use x="462.875" xlink:href="#DejaVuSans-67"/>
     </g>
    </g>
    <g id="line2d_87">
     <path d="M 66.17 53.254687 
L 86.17 53.254687 
" style="fill:none;stroke:#2ca02c;stroke-linecap:square;stroke-width:1.5;"/>
    </g>
    <g id="line2d_88">
     <g>
      <use style="fill:#2ca02c;stroke:#2ca02c;" x="76.17" xlink:href="#maa472dd87b" y="53.254687"/>
     </g>
    </g>
    <g id="text_23">
     <!-- LSTM-32 -->
     <g transform="translate(94.17 56.754687)scale(0.1 -0.1)">
      <defs>
       <path d="M 9.8125 72.90625 
L 19.671875 72.90625 
L 19.671875 8.296875 
L 55.171875 8.296875 
L 55.171875 0 
L 9.8125 0 
z
" id="DejaVuSans-76"/>
       <path d="M 53.515625 70.515625 
L 53.515625 60.890625 
Q 47.90625 63.578125 42.921875 64.890625 
Q 37.9375 66.21875 33.296875 66.21875 
Q 25.25 66.21875 20.875 63.09375 
Q 16.5 59.96875 16.5 54.203125 
Q 16.5 49.359375 19.40625 46.890625 
Q 22.3125 44.4375 30.421875 42.921875 
L 36.375 41.703125 
Q 47.40625 39.59375 52.65625 34.296875 
Q 57.90625 29 57.90625 20.125 
Q 57.90625 9.515625 50.796875 4.046875 
Q 43.703125 -1.421875 29.984375 -1.421875 
Q 24.8125 -1.421875 18.96875 -0.25 
Q 13.140625 0.921875 6.890625 3.21875 
L 6.890625 13.375 
Q 12.890625 10.015625 18.65625 8.296875 
Q 24.421875 6.59375 29.984375 6.59375 
Q 38.421875 6.59375 43.015625 9.90625 
Q 47.609375 13.234375 47.609375 19.390625 
Q 47.609375 24.75 44.3125 27.78125 
Q 41.015625 30.8125 33.5 32.328125 
L 27.484375 33.5 
Q 16.453125 35.6875 11.515625 40.375 
Q 6.59375 45.0625 6.59375 53.421875 
Q 6.59375 63.09375 13.40625 68.65625 
Q 20.21875 74.21875 32.171875 74.21875 
Q 37.3125 74.21875 42.625 73.28125 
Q 47.953125 72.359375 53.515625 70.515625 
z
" id="DejaVuSans-83"/>
       <path d="M 9.8125 72.90625 
L 24.515625 72.90625 
L 43.109375 23.296875 
L 61.8125 72.90625 
L 76.515625 72.90625 
L 76.515625 0 
L 66.890625 0 
L 66.890625 64.015625 
L 48.09375 14.015625 
L 38.1875 14.015625 
L 19.390625 64.015625 
L 19.390625 0 
L 9.8125 0 
z
" id="DejaVuSans-77"/>
      </defs>
      <use xlink:href="#DejaVuSans-76"/>
      <use x="55.712891" xlink:href="#DejaVuSans-83"/>
      <use x="119.189453" xlink:href="#DejaVuSans-84"/>
      <use x="180.273438" xlink:href="#DejaVuSans-77"/>
      <use x="266.552734" xlink:href="#DejaVuSans-45"/>
      <use x="302.636719" xlink:href="#DejaVuSans-51"/>
      <use x="366.259766" xlink:href="#DejaVuSans-50"/>
     </g>
    </g>
   </g>
  </g>
 </g>
 <defs>
  <clipPath id="pd48676990a">
   <rect height="179.727581" width="349.26829" x="57.17" y="10.8"/>
  </clipPath>
 </defs>
</svg>
